<mxfile host="app.diagrams.net" modified="2022-08-24T23:49:55.104Z" agent="5.0 (Windows NT 10.0; Win64; x64) AppleWebKit/537.36 (KHTML, like Gecko) Chrome/104.0.5112.102 Safari/537.36" etag="maujaai__08lukPJZF2w" version="20.2.5" type="github">
  <diagram id="C5RBs43oDa-KdzZeNtuy" name="Page-1">
    <mxGraphModel dx="882" dy="494" grid="1" gridSize="10" guides="1" tooltips="1" connect="1" arrows="1" fold="1" page="1" pageScale="1" pageWidth="827" pageHeight="1169" math="0" shadow="0">
      <root>
        <mxCell id="WIyWlLk6GJQsqaUBKTNV-0" />
        <mxCell id="WIyWlLk6GJQsqaUBKTNV-1" parent="WIyWlLk6GJQsqaUBKTNV-0" />
        <mxCell id="GBISdUFNZ5l1FWsdLvzd-16" value="" style="group" vertex="1" connectable="0" parent="WIyWlLk6GJQsqaUBKTNV-1">
          <mxGeometry x="110" width="130" height="80" as="geometry" />
        </mxCell>
        <mxCell id="GBISdUFNZ5l1FWsdLvzd-0" value="&lt;p style=&quot;line-height: 0.9;&quot;&gt;&lt;font style=&quot;line-height: 1.2;&quot;&gt;&lt;font style=&quot;font-size: 10px;&quot;&gt;60h&lt;/font&gt;&lt;br&gt;&lt;span style=&quot;font-weight: bold;&quot;&gt;&lt;font style=&quot;font-size: 18px;&quot;&gt;EXA703&lt;/font&gt;&lt;/span&gt;&lt;/font&gt;&lt;br&gt;&lt;span data-whi-docs=&quot;[[:p &amp;quot;ÁLGEBRA LINEAR I E&amp;quot;]]&quot;&gt;&lt;/span&gt;&amp;nbsp;&lt;font style=&quot;font-size: 10px;&quot;&gt;ÁLGEBRA LINEAR I E&lt;/font&gt;&lt;b&gt;&lt;font style=&quot;font-size: 15px;&quot;&gt;&lt;br&gt;&lt;/font&gt;&lt;/b&gt;&lt;/p&gt;" style="rounded=1;whiteSpace=wrap;html=1;fillStyle=auto;gradientColor=none;strokeColor=default;shadow=0;glass=0;sketch=0;" vertex="1" parent="GBISdUFNZ5l1FWsdLvzd-16">
          <mxGeometry y="10" width="120" height="60" as="geometry" />
        </mxCell>
        <mxCell id="GBISdUFNZ5l1FWsdLvzd-2" value="&lt;font style=&quot;font-size: 17px;&quot;&gt;4&lt;/font&gt;" style="ellipse;whiteSpace=wrap;html=1;fontSize=10;" vertex="1" parent="GBISdUFNZ5l1FWsdLvzd-16">
          <mxGeometry x="100" width="30" height="30" as="geometry" />
        </mxCell>
        <mxCell id="GBISdUFNZ5l1FWsdLvzd-18" value="" style="group" vertex="1" connectable="0" parent="WIyWlLk6GJQsqaUBKTNV-1">
          <mxGeometry x="500" width="130" height="70" as="geometry" />
        </mxCell>
        <mxCell id="GBISdUFNZ5l1FWsdLvzd-7" value="60h&lt;br&gt;&lt;span style=&quot;font-size: 16px;&quot;&gt;&lt;b&gt;TEC497&lt;/b&gt;&lt;/span&gt;&lt;br&gt;&lt;div&gt;&lt;div&gt;INTRODUÇÃO A&lt;/div&gt;&lt;div&gt;ELETRÔNICA&lt;/div&gt;&lt;/div&gt;" style="rounded=1;whiteSpace=wrap;html=1;shadow=0;glass=0;sketch=0;fillStyle=auto;fontSize=10;strokeColor=default;gradientColor=none;" vertex="1" parent="GBISdUFNZ5l1FWsdLvzd-18">
          <mxGeometry y="10" width="120" height="60" as="geometry" />
        </mxCell>
        <mxCell id="GBISdUFNZ5l1FWsdLvzd-8" value="&lt;font style=&quot;font-size: 17px;&quot;&gt;4&lt;/font&gt;" style="ellipse;whiteSpace=wrap;html=1;fontSize=10;" vertex="1" parent="GBISdUFNZ5l1FWsdLvzd-18">
          <mxGeometry x="100" width="30" height="30" as="geometry" />
        </mxCell>
        <mxCell id="GBISdUFNZ5l1FWsdLvzd-19" value="" style="group" vertex="1" connectable="0" parent="WIyWlLk6GJQsqaUBKTNV-1">
          <mxGeometry x="630" width="126" height="70" as="geometry" />
        </mxCell>
        <mxCell id="GBISdUFNZ5l1FWsdLvzd-11" value="60h&lt;br&gt;&lt;span style=&quot;font-size: 16px;&quot;&gt;&lt;b&gt;EXA703&lt;/b&gt;&lt;/span&gt;&lt;div&gt;MI-PROCE.DE LING.DE&lt;/div&gt;&lt;div&gt;PROGRAMÇÃO&lt;/div&gt;" style="rounded=1;whiteSpace=wrap;html=1;shadow=0;glass=0;sketch=0;fillStyle=auto;fontSize=10;strokeColor=default;gradientColor=none;" vertex="1" parent="GBISdUFNZ5l1FWsdLvzd-19">
          <mxGeometry y="10" width="120" height="60" as="geometry" />
        </mxCell>
        <mxCell id="GBISdUFNZ5l1FWsdLvzd-12" value="&lt;font style=&quot;font-size: 17px;&quot;&gt;4&lt;/font&gt;" style="ellipse;whiteSpace=wrap;html=1;fontSize=10;" vertex="1" parent="GBISdUFNZ5l1FWsdLvzd-19">
          <mxGeometry x="100" width="30" height="30" as="geometry" />
        </mxCell>
        <mxCell id="GBISdUFNZ5l1FWsdLvzd-20" value="" style="group" vertex="1" connectable="0" parent="WIyWlLk6GJQsqaUBKTNV-1">
          <mxGeometry x="760" width="126" height="70" as="geometry" />
        </mxCell>
        <mxCell id="GBISdUFNZ5l1FWsdLvzd-13" value="60h&lt;br&gt;&lt;span style=&quot;font-size: 16px;&quot;&gt;&lt;b&gt;EXA703&lt;/b&gt;&lt;/span&gt;&lt;div&gt;MI-PROCE.DE LING.DE&lt;/div&gt;&lt;div&gt;PROGRAMÇÃO&lt;/div&gt;" style="rounded=1;whiteSpace=wrap;html=1;shadow=0;glass=0;sketch=0;fillStyle=auto;fontSize=10;strokeColor=default;gradientColor=none;" vertex="1" parent="GBISdUFNZ5l1FWsdLvzd-20">
          <mxGeometry y="10" width="120" height="60" as="geometry" />
        </mxCell>
        <mxCell id="GBISdUFNZ5l1FWsdLvzd-28" value="" style="group" vertex="1" connectable="0" parent="WIyWlLk6GJQsqaUBKTNV-1">
          <mxGeometry x="370" width="130" height="70" as="geometry" />
        </mxCell>
        <mxCell id="GBISdUFNZ5l1FWsdLvzd-9" value="60h&lt;br&gt;&lt;span style=&quot;font-size: 16px;&quot;&gt;&lt;b&gt;EXA702&lt;/b&gt;&lt;/span&gt;&lt;br&gt;&lt;div&gt;&lt;div&gt;ÁLGEBRA VET E GEOM&lt;/div&gt;&lt;div&gt;&lt;span style=&quot;background-color: initial;&quot;&gt;ANALÍTICA&lt;/span&gt;&lt;/div&gt;&lt;/div&gt;" style="rounded=1;whiteSpace=wrap;html=1;shadow=0;glass=0;sketch=0;fillStyle=auto;fontSize=10;strokeColor=default;gradientColor=none;" vertex="1" parent="GBISdUFNZ5l1FWsdLvzd-28">
          <mxGeometry y="10" width="120" height="60" as="geometry" />
        </mxCell>
        <mxCell id="GBISdUFNZ5l1FWsdLvzd-6" value="&lt;font style=&quot;font-size: 17px;&quot;&gt;4&lt;/font&gt;" style="ellipse;whiteSpace=wrap;html=1;fontSize=10;" vertex="1" parent="GBISdUFNZ5l1FWsdLvzd-28">
          <mxGeometry x="100" width="30" height="30" as="geometry" />
        </mxCell>
        <mxCell id="GBISdUFNZ5l1FWsdLvzd-29" value="" style="group" vertex="1" connectable="0" parent="WIyWlLk6GJQsqaUBKTNV-1">
          <mxGeometry x="240" width="130" height="70" as="geometry" />
        </mxCell>
        <mxCell id="GBISdUFNZ5l1FWsdLvzd-5" value="60h&lt;br&gt;&lt;span style=&quot;font-size: 16px;&quot;&gt;&lt;b&gt;EXA543&lt;/b&gt;&lt;/span&gt;&lt;div&gt;&lt;div&gt;INTRODUÇÃO AO&lt;/div&gt;&lt;div&gt;&lt;span style=&quot;background-color: initial;&quot;&gt;CÁLCULO&lt;/span&gt;&lt;/div&gt;&lt;/div&gt;" style="rounded=1;whiteSpace=wrap;html=1;shadow=0;glass=0;sketch=0;fillStyle=auto;fontSize=10;strokeColor=default;gradientColor=none;" vertex="1" parent="GBISdUFNZ5l1FWsdLvzd-29">
          <mxGeometry y="10" width="120" height="60" as="geometry" />
        </mxCell>
        <mxCell id="GBISdUFNZ5l1FWsdLvzd-22" value="&lt;font style=&quot;font-size: 17px;&quot;&gt;4&lt;/font&gt;" style="ellipse;whiteSpace=wrap;html=1;fontSize=10;" vertex="1" parent="GBISdUFNZ5l1FWsdLvzd-29">
          <mxGeometry x="100" width="30" height="30" as="geometry" />
        </mxCell>
        <mxCell id="GBISdUFNZ5l1FWsdLvzd-14" value="&lt;font style=&quot;font-size: 17px;&quot;&gt;4&lt;/font&gt;" style="ellipse;whiteSpace=wrap;html=1;fontSize=10;" vertex="1" parent="WIyWlLk6GJQsqaUBKTNV-1">
          <mxGeometry x="860" width="30" height="30" as="geometry" />
        </mxCell>
        <mxCell id="GBISdUFNZ5l1FWsdLvzd-30" value="" style="group" vertex="1" connectable="0" parent="WIyWlLk6GJQsqaUBKTNV-1">
          <mxGeometry x="890" width="130" height="80" as="geometry" />
        </mxCell>
        <mxCell id="GBISdUFNZ5l1FWsdLvzd-31" value="&lt;p style=&quot;line-height: 0.9;&quot;&gt;&lt;font style=&quot;line-height: 1.2;&quot;&gt;&lt;font style=&quot;font-size: 10px;&quot;&gt;60h&lt;/font&gt;&lt;br&gt;&lt;span style=&quot;font-weight: bold;&quot;&gt;&lt;font style=&quot;font-size: 18px;&quot;&gt;EXA703&lt;/font&gt;&lt;/span&gt;&lt;/font&gt;&lt;br&gt;&lt;span data-whi-docs=&quot;[[:p &amp;quot;ÁLGEBRA LINEAR I E&amp;quot;]]&quot;&gt;&lt;/span&gt;&amp;nbsp;&lt;font style=&quot;font-size: 10px;&quot;&gt;ÁLGEBRA LINEAR I E&lt;/font&gt;&lt;b&gt;&lt;font style=&quot;font-size: 15px;&quot;&gt;&lt;br&gt;&lt;/font&gt;&lt;/b&gt;&lt;/p&gt;" style="rounded=1;whiteSpace=wrap;html=1;fillStyle=auto;gradientColor=none;strokeColor=default;shadow=0;glass=0;sketch=0;" vertex="1" parent="GBISdUFNZ5l1FWsdLvzd-30">
          <mxGeometry y="10" width="120" height="60" as="geometry" />
        </mxCell>
        <mxCell id="GBISdUFNZ5l1FWsdLvzd-32" value="&lt;font style=&quot;font-size: 17px;&quot;&gt;4&lt;/font&gt;" style="ellipse;whiteSpace=wrap;html=1;fontSize=10;" vertex="1" parent="GBISdUFNZ5l1FWsdLvzd-30">
          <mxGeometry x="100" width="30" height="30" as="geometry" />
        </mxCell>
        <mxCell id="GBISdUFNZ5l1FWsdLvzd-33" value="" style="group" vertex="1" connectable="0" parent="WIyWlLk6GJQsqaUBKTNV-1">
          <mxGeometry x="1280" width="130" height="70" as="geometry" />
        </mxCell>
        <mxCell id="GBISdUFNZ5l1FWsdLvzd-34" value="60h&lt;br&gt;&lt;span style=&quot;font-size: 16px;&quot;&gt;&lt;b&gt;TEC497&lt;/b&gt;&lt;/span&gt;&lt;br&gt;&lt;div&gt;&lt;div&gt;INTRODUÇÃO A&lt;/div&gt;&lt;div&gt;ELETRÔNICA&lt;/div&gt;&lt;/div&gt;" style="rounded=1;whiteSpace=wrap;html=1;shadow=0;glass=0;sketch=0;fillStyle=auto;fontSize=10;strokeColor=default;gradientColor=none;" vertex="1" parent="GBISdUFNZ5l1FWsdLvzd-33">
          <mxGeometry y="10" width="120" height="60" as="geometry" />
        </mxCell>
        <mxCell id="GBISdUFNZ5l1FWsdLvzd-35" value="&lt;font style=&quot;font-size: 17px;&quot;&gt;4&lt;/font&gt;" style="ellipse;whiteSpace=wrap;html=1;fontSize=10;" vertex="1" parent="GBISdUFNZ5l1FWsdLvzd-33">
          <mxGeometry x="100" width="30" height="30" as="geometry" />
        </mxCell>
        <mxCell id="GBISdUFNZ5l1FWsdLvzd-36" value="" style="group" vertex="1" connectable="0" parent="WIyWlLk6GJQsqaUBKTNV-1">
          <mxGeometry x="1410" width="126" height="70" as="geometry" />
        </mxCell>
        <mxCell id="GBISdUFNZ5l1FWsdLvzd-37" value="60h&lt;br&gt;&lt;span style=&quot;font-size: 16px;&quot;&gt;&lt;b&gt;EXA703&lt;/b&gt;&lt;/span&gt;&lt;div&gt;MI-PROCE.DE LING.DE&lt;/div&gt;&lt;div&gt;PROGRAMÇÃO&lt;/div&gt;" style="rounded=1;whiteSpace=wrap;html=1;shadow=0;glass=0;sketch=0;fillStyle=auto;fontSize=10;strokeColor=default;gradientColor=none;" vertex="1" parent="GBISdUFNZ5l1FWsdLvzd-36">
          <mxGeometry y="10" width="120" height="60" as="geometry" />
        </mxCell>
        <mxCell id="GBISdUFNZ5l1FWsdLvzd-38" value="&lt;font style=&quot;font-size: 17px;&quot;&gt;4&lt;/font&gt;" style="ellipse;whiteSpace=wrap;html=1;fontSize=10;" vertex="1" parent="GBISdUFNZ5l1FWsdLvzd-36">
          <mxGeometry x="100" width="30" height="30" as="geometry" />
        </mxCell>
        <mxCell id="GBISdUFNZ5l1FWsdLvzd-39" value="" style="group" vertex="1" connectable="0" parent="WIyWlLk6GJQsqaUBKTNV-1">
          <mxGeometry x="1540" width="126" height="70" as="geometry" />
        </mxCell>
        <mxCell id="GBISdUFNZ5l1FWsdLvzd-40" value="60h&lt;br&gt;&lt;span style=&quot;font-size: 16px;&quot;&gt;&lt;b&gt;EXA703&lt;/b&gt;&lt;/span&gt;&lt;div&gt;MI-PROCE.DE LING.DE&lt;/div&gt;&lt;div&gt;PROGRAMÇÃO&lt;/div&gt;" style="rounded=1;whiteSpace=wrap;html=1;shadow=0;glass=0;sketch=0;fillStyle=auto;fontSize=10;strokeColor=default;gradientColor=none;" vertex="1" parent="GBISdUFNZ5l1FWsdLvzd-39">
          <mxGeometry y="10" width="120" height="60" as="geometry" />
        </mxCell>
        <mxCell id="GBISdUFNZ5l1FWsdLvzd-41" value="" style="group" vertex="1" connectable="0" parent="WIyWlLk6GJQsqaUBKTNV-1">
          <mxGeometry x="1150" width="130" height="70" as="geometry" />
        </mxCell>
        <mxCell id="GBISdUFNZ5l1FWsdLvzd-42" value="60h&lt;br&gt;&lt;span style=&quot;font-size: 16px;&quot;&gt;&lt;b&gt;EXA702&lt;/b&gt;&lt;/span&gt;&lt;br&gt;&lt;div&gt;&lt;div&gt;ÁLGEBRA VET E GEOM&lt;/div&gt;&lt;div&gt;&lt;span style=&quot;background-color: initial;&quot;&gt;ANALÍTICA&lt;/span&gt;&lt;/div&gt;&lt;/div&gt;" style="rounded=1;whiteSpace=wrap;html=1;shadow=0;glass=0;sketch=0;fillStyle=auto;fontSize=10;strokeColor=default;gradientColor=none;" vertex="1" parent="GBISdUFNZ5l1FWsdLvzd-41">
          <mxGeometry y="10" width="120" height="60" as="geometry" />
        </mxCell>
        <mxCell id="GBISdUFNZ5l1FWsdLvzd-43" value="&lt;font style=&quot;font-size: 17px;&quot;&gt;4&lt;/font&gt;" style="ellipse;whiteSpace=wrap;html=1;fontSize=10;" vertex="1" parent="GBISdUFNZ5l1FWsdLvzd-41">
          <mxGeometry x="100" width="30" height="30" as="geometry" />
        </mxCell>
        <mxCell id="GBISdUFNZ5l1FWsdLvzd-44" value="" style="group" vertex="1" connectable="0" parent="WIyWlLk6GJQsqaUBKTNV-1">
          <mxGeometry x="1020" width="130" height="70" as="geometry" />
        </mxCell>
        <mxCell id="GBISdUFNZ5l1FWsdLvzd-45" value="60h&lt;br&gt;&lt;span style=&quot;font-size: 16px;&quot;&gt;&lt;b&gt;EXA543&lt;/b&gt;&lt;/span&gt;&lt;div&gt;&lt;div&gt;INTRODUÇÃO AO&lt;/div&gt;&lt;div&gt;&lt;span style=&quot;background-color: initial;&quot;&gt;CÁLCULO&lt;/span&gt;&lt;/div&gt;&lt;/div&gt;" style="rounded=1;whiteSpace=wrap;html=1;shadow=0;glass=0;sketch=0;fillStyle=auto;fontSize=10;strokeColor=default;gradientColor=none;" vertex="1" parent="GBISdUFNZ5l1FWsdLvzd-44">
          <mxGeometry y="10" width="120" height="60" as="geometry" />
        </mxCell>
        <mxCell id="GBISdUFNZ5l1FWsdLvzd-46" value="&lt;font style=&quot;font-size: 17px;&quot;&gt;4&lt;/font&gt;" style="ellipse;whiteSpace=wrap;html=1;fontSize=10;" vertex="1" parent="GBISdUFNZ5l1FWsdLvzd-44">
          <mxGeometry x="100" width="30" height="30" as="geometry" />
        </mxCell>
        <mxCell id="GBISdUFNZ5l1FWsdLvzd-47" value="&lt;font style=&quot;font-size: 17px;&quot;&gt;4&lt;/font&gt;" style="ellipse;whiteSpace=wrap;html=1;fontSize=10;" vertex="1" parent="WIyWlLk6GJQsqaUBKTNV-1">
          <mxGeometry x="1640" width="30" height="30" as="geometry" />
        </mxCell>
        <mxCell id="GBISdUFNZ5l1FWsdLvzd-48" value="" style="group" vertex="1" connectable="0" parent="WIyWlLk6GJQsqaUBKTNV-1">
          <mxGeometry x="110" y="140" width="130" height="80" as="geometry" />
        </mxCell>
        <mxCell id="GBISdUFNZ5l1FWsdLvzd-49" value="&lt;p style=&quot;line-height: 0.9;&quot;&gt;&lt;font style=&quot;line-height: 1.2;&quot;&gt;&lt;font style=&quot;font-size: 10px;&quot;&gt;60h&lt;/font&gt;&lt;br&gt;&lt;span style=&quot;font-weight: bold;&quot;&gt;&lt;font style=&quot;font-size: 18px;&quot;&gt;EXA703&lt;/font&gt;&lt;/span&gt;&lt;/font&gt;&lt;br&gt;&lt;span data-whi-docs=&quot;[[:p &amp;quot;ÁLGEBRA LINEAR I E&amp;quot;]]&quot;&gt;&lt;/span&gt;&amp;nbsp;&lt;font style=&quot;font-size: 10px;&quot;&gt;ÁLGEBRA LINEAR I E&lt;/font&gt;&lt;b&gt;&lt;font style=&quot;font-size: 15px;&quot;&gt;&lt;br&gt;&lt;/font&gt;&lt;/b&gt;&lt;/p&gt;" style="rounded=1;whiteSpace=wrap;html=1;fillStyle=auto;gradientColor=none;strokeColor=default;shadow=0;glass=0;sketch=0;" vertex="1" parent="GBISdUFNZ5l1FWsdLvzd-48">
          <mxGeometry y="10" width="120" height="60" as="geometry" />
        </mxCell>
        <mxCell id="GBISdUFNZ5l1FWsdLvzd-50" value="&lt;font style=&quot;font-size: 17px;&quot;&gt;4&lt;/font&gt;" style="ellipse;whiteSpace=wrap;html=1;fontSize=10;" vertex="1" parent="GBISdUFNZ5l1FWsdLvzd-48">
          <mxGeometry x="100" width="30" height="30" as="geometry" />
        </mxCell>
        <mxCell id="GBISdUFNZ5l1FWsdLvzd-51" value="" style="group" vertex="1" connectable="0" parent="WIyWlLk6GJQsqaUBKTNV-1">
          <mxGeometry x="500" y="140" width="130" height="70" as="geometry" />
        </mxCell>
        <mxCell id="GBISdUFNZ5l1FWsdLvzd-52" value="60h&lt;br&gt;&lt;span style=&quot;font-size: 16px;&quot;&gt;&lt;b&gt;TEC497&lt;/b&gt;&lt;/span&gt;&lt;br&gt;&lt;div&gt;&lt;div&gt;INTRODUÇÃO A&lt;/div&gt;&lt;div&gt;ELETRÔNICA&lt;/div&gt;&lt;/div&gt;" style="rounded=1;whiteSpace=wrap;html=1;shadow=0;glass=0;sketch=0;fillStyle=auto;fontSize=10;strokeColor=default;gradientColor=none;" vertex="1" parent="GBISdUFNZ5l1FWsdLvzd-51">
          <mxGeometry y="10" width="120" height="60" as="geometry" />
        </mxCell>
        <mxCell id="GBISdUFNZ5l1FWsdLvzd-53" value="&lt;font style=&quot;font-size: 17px;&quot;&gt;4&lt;/font&gt;" style="ellipse;whiteSpace=wrap;html=1;fontSize=10;" vertex="1" parent="GBISdUFNZ5l1FWsdLvzd-51">
          <mxGeometry x="100" width="30" height="30" as="geometry" />
        </mxCell>
        <mxCell id="GBISdUFNZ5l1FWsdLvzd-54" value="" style="group" vertex="1" connectable="0" parent="WIyWlLk6GJQsqaUBKTNV-1">
          <mxGeometry x="630" y="140" width="126" height="70" as="geometry" />
        </mxCell>
        <mxCell id="GBISdUFNZ5l1FWsdLvzd-55" value="60h&lt;br&gt;&lt;span style=&quot;font-size: 16px;&quot;&gt;&lt;b&gt;EXA703&lt;/b&gt;&lt;/span&gt;&lt;div&gt;MI-PROCE.DE LING.DE&lt;/div&gt;&lt;div&gt;PROGRAMÇÃO&lt;/div&gt;" style="rounded=1;whiteSpace=wrap;html=1;shadow=0;glass=0;sketch=0;fillStyle=auto;fontSize=10;strokeColor=default;gradientColor=none;" vertex="1" parent="GBISdUFNZ5l1FWsdLvzd-54">
          <mxGeometry y="10" width="120" height="60" as="geometry" />
        </mxCell>
        <mxCell id="GBISdUFNZ5l1FWsdLvzd-56" value="&lt;font style=&quot;font-size: 17px;&quot;&gt;4&lt;/font&gt;" style="ellipse;whiteSpace=wrap;html=1;fontSize=10;" vertex="1" parent="GBISdUFNZ5l1FWsdLvzd-54">
          <mxGeometry x="100" width="30" height="30" as="geometry" />
        </mxCell>
        <mxCell id="GBISdUFNZ5l1FWsdLvzd-57" value="" style="group" vertex="1" connectable="0" parent="WIyWlLk6GJQsqaUBKTNV-1">
          <mxGeometry x="760" y="140" width="126" height="70" as="geometry" />
        </mxCell>
        <mxCell id="GBISdUFNZ5l1FWsdLvzd-58" value="60h&lt;br&gt;&lt;span style=&quot;font-size: 16px;&quot;&gt;&lt;b&gt;EXA703&lt;/b&gt;&lt;/span&gt;&lt;div&gt;MI-PROCE.DE LING.DE&lt;/div&gt;&lt;div&gt;PROGRAMÇÃO&lt;/div&gt;" style="rounded=1;whiteSpace=wrap;html=1;shadow=0;glass=0;sketch=0;fillStyle=auto;fontSize=10;strokeColor=default;gradientColor=none;" vertex="1" parent="GBISdUFNZ5l1FWsdLvzd-57">
          <mxGeometry y="10" width="120" height="60" as="geometry" />
        </mxCell>
        <mxCell id="GBISdUFNZ5l1FWsdLvzd-59" value="" style="group" vertex="1" connectable="0" parent="WIyWlLk6GJQsqaUBKTNV-1">
          <mxGeometry x="370" y="140" width="130" height="70" as="geometry" />
        </mxCell>
        <mxCell id="GBISdUFNZ5l1FWsdLvzd-60" value="60h&lt;br&gt;&lt;span style=&quot;font-size: 16px;&quot;&gt;&lt;b&gt;EXA702&lt;/b&gt;&lt;/span&gt;&lt;br&gt;&lt;div&gt;&lt;div&gt;ÁLGEBRA VET E GEOM&lt;/div&gt;&lt;div&gt;&lt;span style=&quot;background-color: initial;&quot;&gt;ANALÍTICA&lt;/span&gt;&lt;/div&gt;&lt;/div&gt;" style="rounded=1;whiteSpace=wrap;html=1;shadow=0;glass=0;sketch=0;fillStyle=auto;fontSize=10;strokeColor=default;gradientColor=none;" vertex="1" parent="GBISdUFNZ5l1FWsdLvzd-59">
          <mxGeometry y="10" width="120" height="60" as="geometry" />
        </mxCell>
        <mxCell id="GBISdUFNZ5l1FWsdLvzd-61" value="&lt;font style=&quot;font-size: 17px;&quot;&gt;4&lt;/font&gt;" style="ellipse;whiteSpace=wrap;html=1;fontSize=10;" vertex="1" parent="GBISdUFNZ5l1FWsdLvzd-59">
          <mxGeometry x="100" width="30" height="30" as="geometry" />
        </mxCell>
        <mxCell id="GBISdUFNZ5l1FWsdLvzd-62" value="" style="group" vertex="1" connectable="0" parent="WIyWlLk6GJQsqaUBKTNV-1">
          <mxGeometry x="240" y="140" width="130" height="70" as="geometry" />
        </mxCell>
        <mxCell id="GBISdUFNZ5l1FWsdLvzd-63" value="60h&lt;br&gt;&lt;span style=&quot;font-size: 16px;&quot;&gt;&lt;b&gt;EXA543&lt;/b&gt;&lt;/span&gt;&lt;div&gt;&lt;div&gt;INTRODUÇÃO AO&lt;/div&gt;&lt;div&gt;&lt;span style=&quot;background-color: initial;&quot;&gt;CÁLCULO&lt;/span&gt;&lt;/div&gt;&lt;/div&gt;" style="rounded=1;whiteSpace=wrap;html=1;shadow=0;glass=0;sketch=0;fillStyle=auto;fontSize=10;strokeColor=default;gradientColor=none;" vertex="1" parent="GBISdUFNZ5l1FWsdLvzd-62">
          <mxGeometry y="10" width="120" height="60" as="geometry" />
        </mxCell>
        <mxCell id="GBISdUFNZ5l1FWsdLvzd-64" value="&lt;font style=&quot;font-size: 17px;&quot;&gt;4&lt;/font&gt;" style="ellipse;whiteSpace=wrap;html=1;fontSize=10;" vertex="1" parent="GBISdUFNZ5l1FWsdLvzd-62">
          <mxGeometry x="100" width="30" height="30" as="geometry" />
        </mxCell>
        <mxCell id="GBISdUFNZ5l1FWsdLvzd-65" value="&lt;font style=&quot;font-size: 17px;&quot;&gt;4&lt;/font&gt;" style="ellipse;whiteSpace=wrap;html=1;fontSize=10;" vertex="1" parent="WIyWlLk6GJQsqaUBKTNV-1">
          <mxGeometry x="860" y="140" width="30" height="30" as="geometry" />
        </mxCell>
        <mxCell id="GBISdUFNZ5l1FWsdLvzd-66" value="" style="group" vertex="1" connectable="0" parent="WIyWlLk6GJQsqaUBKTNV-1">
          <mxGeometry x="890" y="140" width="130" height="80" as="geometry" />
        </mxCell>
        <mxCell id="GBISdUFNZ5l1FWsdLvzd-67" value="&lt;p style=&quot;line-height: 0.9;&quot;&gt;&lt;font style=&quot;line-height: 1.2;&quot;&gt;&lt;font style=&quot;font-size: 10px;&quot;&gt;60h&lt;/font&gt;&lt;br&gt;&lt;span style=&quot;font-weight: bold;&quot;&gt;&lt;font style=&quot;font-size: 18px;&quot;&gt;EXA703&lt;/font&gt;&lt;/span&gt;&lt;/font&gt;&lt;br&gt;&lt;span data-whi-docs=&quot;[[:p &amp;quot;ÁLGEBRA LINEAR I E&amp;quot;]]&quot;&gt;&lt;/span&gt;&amp;nbsp;&lt;font style=&quot;font-size: 10px;&quot;&gt;ÁLGEBRA LINEAR I E&lt;/font&gt;&lt;b&gt;&lt;font style=&quot;font-size: 15px;&quot;&gt;&lt;br&gt;&lt;/font&gt;&lt;/b&gt;&lt;/p&gt;" style="rounded=1;whiteSpace=wrap;html=1;fillStyle=auto;gradientColor=none;strokeColor=default;shadow=0;glass=0;sketch=0;" vertex="1" parent="GBISdUFNZ5l1FWsdLvzd-66">
          <mxGeometry y="10" width="120" height="60" as="geometry" />
        </mxCell>
        <mxCell id="GBISdUFNZ5l1FWsdLvzd-68" value="&lt;font style=&quot;font-size: 17px;&quot;&gt;4&lt;/font&gt;" style="ellipse;whiteSpace=wrap;html=1;fontSize=10;" vertex="1" parent="GBISdUFNZ5l1FWsdLvzd-66">
          <mxGeometry x="100" width="30" height="30" as="geometry" />
        </mxCell>
        <mxCell id="GBISdUFNZ5l1FWsdLvzd-69" value="" style="group" vertex="1" connectable="0" parent="WIyWlLk6GJQsqaUBKTNV-1">
          <mxGeometry x="1280" y="140" width="130" height="70" as="geometry" />
        </mxCell>
        <mxCell id="GBISdUFNZ5l1FWsdLvzd-70" value="60h&lt;br&gt;&lt;span style=&quot;font-size: 16px;&quot;&gt;&lt;b&gt;TEC497&lt;/b&gt;&lt;/span&gt;&lt;br&gt;&lt;div&gt;&lt;div&gt;INTRODUÇÃO A&lt;/div&gt;&lt;div&gt;ELETRÔNICA&lt;/div&gt;&lt;/div&gt;" style="rounded=1;whiteSpace=wrap;html=1;shadow=0;glass=0;sketch=0;fillStyle=auto;fontSize=10;strokeColor=default;gradientColor=none;" vertex="1" parent="GBISdUFNZ5l1FWsdLvzd-69">
          <mxGeometry y="10" width="120" height="60" as="geometry" />
        </mxCell>
        <mxCell id="GBISdUFNZ5l1FWsdLvzd-71" value="&lt;font style=&quot;font-size: 17px;&quot;&gt;4&lt;/font&gt;" style="ellipse;whiteSpace=wrap;html=1;fontSize=10;" vertex="1" parent="GBISdUFNZ5l1FWsdLvzd-69">
          <mxGeometry x="100" width="30" height="30" as="geometry" />
        </mxCell>
        <mxCell id="GBISdUFNZ5l1FWsdLvzd-72" value="" style="group" vertex="1" connectable="0" parent="WIyWlLk6GJQsqaUBKTNV-1">
          <mxGeometry x="1410" y="140" width="126" height="70" as="geometry" />
        </mxCell>
        <mxCell id="GBISdUFNZ5l1FWsdLvzd-73" value="60h&lt;br&gt;&lt;span style=&quot;font-size: 16px;&quot;&gt;&lt;b&gt;EXA703&lt;/b&gt;&lt;/span&gt;&lt;div&gt;MI-PROCE.DE LING.DE&lt;/div&gt;&lt;div&gt;PROGRAMÇÃO&lt;/div&gt;" style="rounded=1;whiteSpace=wrap;html=1;shadow=0;glass=0;sketch=0;fillStyle=auto;fontSize=10;strokeColor=default;gradientColor=none;" vertex="1" parent="GBISdUFNZ5l1FWsdLvzd-72">
          <mxGeometry y="10" width="120" height="60" as="geometry" />
        </mxCell>
        <mxCell id="GBISdUFNZ5l1FWsdLvzd-74" value="&lt;font style=&quot;font-size: 17px;&quot;&gt;4&lt;/font&gt;" style="ellipse;whiteSpace=wrap;html=1;fontSize=10;" vertex="1" parent="GBISdUFNZ5l1FWsdLvzd-72">
          <mxGeometry x="100" width="30" height="30" as="geometry" />
        </mxCell>
        <mxCell id="GBISdUFNZ5l1FWsdLvzd-75" value="" style="group" vertex="1" connectable="0" parent="WIyWlLk6GJQsqaUBKTNV-1">
          <mxGeometry x="1540" y="140" width="126" height="70" as="geometry" />
        </mxCell>
        <mxCell id="GBISdUFNZ5l1FWsdLvzd-76" value="60h&lt;br&gt;&lt;span style=&quot;font-size: 16px;&quot;&gt;&lt;b&gt;EXA703&lt;/b&gt;&lt;/span&gt;&lt;div&gt;MI-PROCE.DE LING.DE&lt;/div&gt;&lt;div&gt;PROGRAMÇÃO&lt;/div&gt;" style="rounded=1;whiteSpace=wrap;html=1;shadow=0;glass=0;sketch=0;fillStyle=auto;fontSize=10;strokeColor=default;gradientColor=none;" vertex="1" parent="GBISdUFNZ5l1FWsdLvzd-75">
          <mxGeometry y="10" width="120" height="60" as="geometry" />
        </mxCell>
        <mxCell id="GBISdUFNZ5l1FWsdLvzd-77" value="" style="group" vertex="1" connectable="0" parent="WIyWlLk6GJQsqaUBKTNV-1">
          <mxGeometry x="1150" y="140" width="130" height="70" as="geometry" />
        </mxCell>
        <mxCell id="GBISdUFNZ5l1FWsdLvzd-78" value="60h&lt;br&gt;&lt;span style=&quot;font-size: 16px;&quot;&gt;&lt;b&gt;EXA702&lt;/b&gt;&lt;/span&gt;&lt;br&gt;&lt;div&gt;&lt;div&gt;ÁLGEBRA VET E GEOM&lt;/div&gt;&lt;div&gt;&lt;span style=&quot;background-color: initial;&quot;&gt;ANALÍTICA&lt;/span&gt;&lt;/div&gt;&lt;/div&gt;" style="rounded=1;whiteSpace=wrap;html=1;shadow=0;glass=0;sketch=0;fillStyle=auto;fontSize=10;strokeColor=default;gradientColor=none;" vertex="1" parent="GBISdUFNZ5l1FWsdLvzd-77">
          <mxGeometry y="10" width="120" height="60" as="geometry" />
        </mxCell>
        <mxCell id="GBISdUFNZ5l1FWsdLvzd-79" value="&lt;font style=&quot;font-size: 17px;&quot;&gt;4&lt;/font&gt;" style="ellipse;whiteSpace=wrap;html=1;fontSize=10;" vertex="1" parent="GBISdUFNZ5l1FWsdLvzd-77">
          <mxGeometry x="100" width="30" height="30" as="geometry" />
        </mxCell>
        <mxCell id="GBISdUFNZ5l1FWsdLvzd-80" value="" style="group" vertex="1" connectable="0" parent="WIyWlLk6GJQsqaUBKTNV-1">
          <mxGeometry x="1020" y="140" width="130" height="70" as="geometry" />
        </mxCell>
        <mxCell id="GBISdUFNZ5l1FWsdLvzd-81" value="60h&lt;br&gt;&lt;span style=&quot;font-size: 16px;&quot;&gt;&lt;b&gt;EXA543&lt;/b&gt;&lt;/span&gt;&lt;div&gt;&lt;div&gt;INTRODUÇÃO AO&lt;/div&gt;&lt;div&gt;&lt;span style=&quot;background-color: initial;&quot;&gt;CÁLCULO&lt;/span&gt;&lt;/div&gt;&lt;/div&gt;" style="rounded=1;whiteSpace=wrap;html=1;shadow=0;glass=0;sketch=0;fillStyle=auto;fontSize=10;strokeColor=default;gradientColor=none;" vertex="1" parent="GBISdUFNZ5l1FWsdLvzd-80">
          <mxGeometry y="10" width="120" height="60" as="geometry" />
        </mxCell>
        <mxCell id="GBISdUFNZ5l1FWsdLvzd-82" value="&lt;font style=&quot;font-size: 17px;&quot;&gt;4&lt;/font&gt;" style="ellipse;whiteSpace=wrap;html=1;fontSize=10;" vertex="1" parent="GBISdUFNZ5l1FWsdLvzd-80">
          <mxGeometry x="100" width="30" height="30" as="geometry" />
        </mxCell>
        <mxCell id="GBISdUFNZ5l1FWsdLvzd-83" value="&lt;font style=&quot;font-size: 17px;&quot;&gt;4&lt;/font&gt;" style="ellipse;whiteSpace=wrap;html=1;fontSize=10;" vertex="1" parent="WIyWlLk6GJQsqaUBKTNV-1">
          <mxGeometry x="1640" y="140" width="30" height="30" as="geometry" />
        </mxCell>
        <mxCell id="GBISdUFNZ5l1FWsdLvzd-84" value="" style="group" vertex="1" connectable="0" parent="WIyWlLk6GJQsqaUBKTNV-1">
          <mxGeometry x="110" y="280" width="130" height="80" as="geometry" />
        </mxCell>
        <mxCell id="GBISdUFNZ5l1FWsdLvzd-85" value="&lt;p style=&quot;line-height: 0.9;&quot;&gt;&lt;font style=&quot;line-height: 1.2;&quot;&gt;&lt;font style=&quot;font-size: 10px;&quot;&gt;60h&lt;/font&gt;&lt;br&gt;&lt;span style=&quot;font-weight: bold;&quot;&gt;&lt;font style=&quot;font-size: 18px;&quot;&gt;EXA703&lt;/font&gt;&lt;/span&gt;&lt;/font&gt;&lt;br&gt;&lt;span data-whi-docs=&quot;[[:p &amp;quot;ÁLGEBRA LINEAR I E&amp;quot;]]&quot;&gt;&lt;/span&gt;&amp;nbsp;&lt;font style=&quot;font-size: 10px;&quot;&gt;ÁLGEBRA LINEAR I E&lt;/font&gt;&lt;b&gt;&lt;font style=&quot;font-size: 15px;&quot;&gt;&lt;br&gt;&lt;/font&gt;&lt;/b&gt;&lt;/p&gt;" style="rounded=1;whiteSpace=wrap;html=1;fillStyle=auto;gradientColor=none;strokeColor=default;shadow=0;glass=0;sketch=0;" vertex="1" parent="GBISdUFNZ5l1FWsdLvzd-84">
          <mxGeometry y="10" width="120" height="60" as="geometry" />
        </mxCell>
        <mxCell id="GBISdUFNZ5l1FWsdLvzd-86" value="&lt;font style=&quot;font-size: 17px;&quot;&gt;4&lt;/font&gt;" style="ellipse;whiteSpace=wrap;html=1;fontSize=10;" vertex="1" parent="GBISdUFNZ5l1FWsdLvzd-84">
          <mxGeometry x="100" width="30" height="30" as="geometry" />
        </mxCell>
        <mxCell id="GBISdUFNZ5l1FWsdLvzd-87" value="" style="group" vertex="1" connectable="0" parent="WIyWlLk6GJQsqaUBKTNV-1">
          <mxGeometry x="500" y="280" width="130" height="70" as="geometry" />
        </mxCell>
        <mxCell id="GBISdUFNZ5l1FWsdLvzd-88" value="60h&lt;br&gt;&lt;span style=&quot;font-size: 16px;&quot;&gt;&lt;b&gt;TEC497&lt;/b&gt;&lt;/span&gt;&lt;br&gt;&lt;div&gt;&lt;div&gt;INTRODUÇÃO A&lt;/div&gt;&lt;div&gt;ELETRÔNICA&lt;/div&gt;&lt;/div&gt;" style="rounded=1;whiteSpace=wrap;html=1;shadow=0;glass=0;sketch=0;fillStyle=auto;fontSize=10;strokeColor=default;gradientColor=none;" vertex="1" parent="GBISdUFNZ5l1FWsdLvzd-87">
          <mxGeometry y="10" width="120" height="60" as="geometry" />
        </mxCell>
        <mxCell id="GBISdUFNZ5l1FWsdLvzd-89" value="&lt;font style=&quot;font-size: 17px;&quot;&gt;4&lt;/font&gt;" style="ellipse;whiteSpace=wrap;html=1;fontSize=10;" vertex="1" parent="GBISdUFNZ5l1FWsdLvzd-87">
          <mxGeometry x="100" width="30" height="30" as="geometry" />
        </mxCell>
        <mxCell id="GBISdUFNZ5l1FWsdLvzd-90" value="" style="group" vertex="1" connectable="0" parent="WIyWlLk6GJQsqaUBKTNV-1">
          <mxGeometry x="630" y="280" width="126" height="70" as="geometry" />
        </mxCell>
        <mxCell id="GBISdUFNZ5l1FWsdLvzd-91" value="60h&lt;br&gt;&lt;span style=&quot;font-size: 16px;&quot;&gt;&lt;b&gt;EXA703&lt;/b&gt;&lt;/span&gt;&lt;div&gt;MI-PROCE.DE LING.DE&lt;/div&gt;&lt;div&gt;PROGRAMÇÃO&lt;/div&gt;" style="rounded=1;whiteSpace=wrap;html=1;shadow=0;glass=0;sketch=0;fillStyle=auto;fontSize=10;strokeColor=default;gradientColor=none;" vertex="1" parent="GBISdUFNZ5l1FWsdLvzd-90">
          <mxGeometry y="10" width="120" height="60" as="geometry" />
        </mxCell>
        <mxCell id="GBISdUFNZ5l1FWsdLvzd-92" value="&lt;font style=&quot;font-size: 17px;&quot;&gt;4&lt;/font&gt;" style="ellipse;whiteSpace=wrap;html=1;fontSize=10;" vertex="1" parent="GBISdUFNZ5l1FWsdLvzd-90">
          <mxGeometry x="100" width="30" height="30" as="geometry" />
        </mxCell>
        <mxCell id="GBISdUFNZ5l1FWsdLvzd-93" value="" style="group" vertex="1" connectable="0" parent="WIyWlLk6GJQsqaUBKTNV-1">
          <mxGeometry x="760" y="280" width="126" height="70" as="geometry" />
        </mxCell>
        <mxCell id="GBISdUFNZ5l1FWsdLvzd-94" value="60h&lt;br&gt;&lt;span style=&quot;font-size: 16px;&quot;&gt;&lt;b&gt;EXA703&lt;/b&gt;&lt;/span&gt;&lt;div&gt;MI-PROCE.DE LING.DE&lt;/div&gt;&lt;div&gt;PROGRAMÇÃO&lt;/div&gt;" style="rounded=1;whiteSpace=wrap;html=1;shadow=0;glass=0;sketch=0;fillStyle=auto;fontSize=10;strokeColor=default;gradientColor=none;" vertex="1" parent="GBISdUFNZ5l1FWsdLvzd-93">
          <mxGeometry y="10" width="120" height="60" as="geometry" />
        </mxCell>
        <mxCell id="GBISdUFNZ5l1FWsdLvzd-95" value="" style="group" vertex="1" connectable="0" parent="WIyWlLk6GJQsqaUBKTNV-1">
          <mxGeometry x="370" y="280" width="130" height="70" as="geometry" />
        </mxCell>
        <mxCell id="GBISdUFNZ5l1FWsdLvzd-96" value="60h&lt;br&gt;&lt;span style=&quot;font-size: 16px;&quot;&gt;&lt;b&gt;EXA702&lt;/b&gt;&lt;/span&gt;&lt;br&gt;&lt;div&gt;&lt;div&gt;ÁLGEBRA VET E GEOM&lt;/div&gt;&lt;div&gt;&lt;span style=&quot;background-color: initial;&quot;&gt;ANALÍTICA&lt;/span&gt;&lt;/div&gt;&lt;/div&gt;" style="rounded=1;whiteSpace=wrap;html=1;shadow=0;glass=0;sketch=0;fillStyle=auto;fontSize=10;strokeColor=default;gradientColor=none;" vertex="1" parent="GBISdUFNZ5l1FWsdLvzd-95">
          <mxGeometry y="10" width="120" height="60" as="geometry" />
        </mxCell>
        <mxCell id="GBISdUFNZ5l1FWsdLvzd-97" value="&lt;font style=&quot;font-size: 17px;&quot;&gt;4&lt;/font&gt;" style="ellipse;whiteSpace=wrap;html=1;fontSize=10;" vertex="1" parent="GBISdUFNZ5l1FWsdLvzd-95">
          <mxGeometry x="100" width="30" height="30" as="geometry" />
        </mxCell>
        <mxCell id="GBISdUFNZ5l1FWsdLvzd-98" value="" style="group" vertex="1" connectable="0" parent="WIyWlLk6GJQsqaUBKTNV-1">
          <mxGeometry x="240" y="280" width="130" height="70" as="geometry" />
        </mxCell>
        <mxCell id="GBISdUFNZ5l1FWsdLvzd-99" value="60h&lt;br&gt;&lt;span style=&quot;font-size: 16px;&quot;&gt;&lt;b&gt;EXA543&lt;/b&gt;&lt;/span&gt;&lt;div&gt;&lt;div&gt;INTRODUÇÃO AO&lt;/div&gt;&lt;div&gt;&lt;span style=&quot;background-color: initial;&quot;&gt;CÁLCULO&lt;/span&gt;&lt;/div&gt;&lt;/div&gt;" style="rounded=1;whiteSpace=wrap;html=1;shadow=0;glass=0;sketch=0;fillStyle=auto;fontSize=10;strokeColor=default;gradientColor=none;" vertex="1" parent="GBISdUFNZ5l1FWsdLvzd-98">
          <mxGeometry y="10" width="120" height="60" as="geometry" />
        </mxCell>
        <mxCell id="GBISdUFNZ5l1FWsdLvzd-100" value="&lt;font style=&quot;font-size: 17px;&quot;&gt;4&lt;/font&gt;" style="ellipse;whiteSpace=wrap;html=1;fontSize=10;" vertex="1" parent="GBISdUFNZ5l1FWsdLvzd-98">
          <mxGeometry x="100" width="30" height="30" as="geometry" />
        </mxCell>
        <mxCell id="GBISdUFNZ5l1FWsdLvzd-101" value="&lt;font style=&quot;font-size: 17px;&quot;&gt;4&lt;/font&gt;" style="ellipse;whiteSpace=wrap;html=1;fontSize=10;" vertex="1" parent="WIyWlLk6GJQsqaUBKTNV-1">
          <mxGeometry x="860" y="280" width="30" height="30" as="geometry" />
        </mxCell>
        <mxCell id="GBISdUFNZ5l1FWsdLvzd-102" value="" style="group" vertex="1" connectable="0" parent="WIyWlLk6GJQsqaUBKTNV-1">
          <mxGeometry x="890" y="280" width="130" height="80" as="geometry" />
        </mxCell>
        <mxCell id="GBISdUFNZ5l1FWsdLvzd-103" value="&lt;p style=&quot;line-height: 0.9;&quot;&gt;&lt;font style=&quot;line-height: 1.2;&quot;&gt;&lt;font style=&quot;font-size: 10px;&quot;&gt;60h&lt;/font&gt;&lt;br&gt;&lt;span style=&quot;font-weight: bold;&quot;&gt;&lt;font style=&quot;font-size: 18px;&quot;&gt;EXA703&lt;/font&gt;&lt;/span&gt;&lt;/font&gt;&lt;br&gt;&lt;span data-whi-docs=&quot;[[:p &amp;quot;ÁLGEBRA LINEAR I E&amp;quot;]]&quot;&gt;&lt;/span&gt;&amp;nbsp;&lt;font style=&quot;font-size: 10px;&quot;&gt;ÁLGEBRA LINEAR I E&lt;/font&gt;&lt;b&gt;&lt;font style=&quot;font-size: 15px;&quot;&gt;&lt;br&gt;&lt;/font&gt;&lt;/b&gt;&lt;/p&gt;" style="rounded=1;whiteSpace=wrap;html=1;fillStyle=auto;gradientColor=none;strokeColor=default;shadow=0;glass=0;sketch=0;" vertex="1" parent="GBISdUFNZ5l1FWsdLvzd-102">
          <mxGeometry y="10" width="120" height="60" as="geometry" />
        </mxCell>
        <mxCell id="GBISdUFNZ5l1FWsdLvzd-104" value="&lt;font style=&quot;font-size: 17px;&quot;&gt;4&lt;/font&gt;" style="ellipse;whiteSpace=wrap;html=1;fontSize=10;" vertex="1" parent="GBISdUFNZ5l1FWsdLvzd-102">
          <mxGeometry x="100" width="30" height="30" as="geometry" />
        </mxCell>
        <mxCell id="GBISdUFNZ5l1FWsdLvzd-105" value="" style="group" vertex="1" connectable="0" parent="WIyWlLk6GJQsqaUBKTNV-1">
          <mxGeometry x="1280" y="280" width="130" height="70" as="geometry" />
        </mxCell>
        <mxCell id="GBISdUFNZ5l1FWsdLvzd-106" value="60h&lt;br&gt;&lt;span style=&quot;font-size: 16px;&quot;&gt;&lt;b&gt;TEC497&lt;/b&gt;&lt;/span&gt;&lt;br&gt;&lt;div&gt;&lt;div&gt;INTRODUÇÃO A&lt;/div&gt;&lt;div&gt;ELETRÔNICA&lt;/div&gt;&lt;/div&gt;" style="rounded=1;whiteSpace=wrap;html=1;shadow=0;glass=0;sketch=0;fillStyle=auto;fontSize=10;strokeColor=default;gradientColor=none;" vertex="1" parent="GBISdUFNZ5l1FWsdLvzd-105">
          <mxGeometry y="10" width="120" height="60" as="geometry" />
        </mxCell>
        <mxCell id="GBISdUFNZ5l1FWsdLvzd-107" value="&lt;font style=&quot;font-size: 17px;&quot;&gt;4&lt;/font&gt;" style="ellipse;whiteSpace=wrap;html=1;fontSize=10;" vertex="1" parent="GBISdUFNZ5l1FWsdLvzd-105">
          <mxGeometry x="100" width="30" height="30" as="geometry" />
        </mxCell>
        <mxCell id="GBISdUFNZ5l1FWsdLvzd-108" value="" style="group" vertex="1" connectable="0" parent="WIyWlLk6GJQsqaUBKTNV-1">
          <mxGeometry x="1410" y="280" width="126" height="70" as="geometry" />
        </mxCell>
        <mxCell id="GBISdUFNZ5l1FWsdLvzd-109" value="60h&lt;br&gt;&lt;span style=&quot;font-size: 16px;&quot;&gt;&lt;b&gt;EXA703&lt;/b&gt;&lt;/span&gt;&lt;div&gt;MI-PROCE.DE LING.DE&lt;/div&gt;&lt;div&gt;PROGRAMÇÃO&lt;/div&gt;" style="rounded=1;whiteSpace=wrap;html=1;shadow=0;glass=0;sketch=0;fillStyle=auto;fontSize=10;strokeColor=default;gradientColor=none;" vertex="1" parent="GBISdUFNZ5l1FWsdLvzd-108">
          <mxGeometry y="10" width="120" height="60" as="geometry" />
        </mxCell>
        <mxCell id="GBISdUFNZ5l1FWsdLvzd-110" value="&lt;font style=&quot;font-size: 17px;&quot;&gt;4&lt;/font&gt;" style="ellipse;whiteSpace=wrap;html=1;fontSize=10;" vertex="1" parent="GBISdUFNZ5l1FWsdLvzd-108">
          <mxGeometry x="100" width="30" height="30" as="geometry" />
        </mxCell>
        <mxCell id="GBISdUFNZ5l1FWsdLvzd-111" value="" style="group" vertex="1" connectable="0" parent="WIyWlLk6GJQsqaUBKTNV-1">
          <mxGeometry x="1540" y="280" width="126" height="70" as="geometry" />
        </mxCell>
        <mxCell id="GBISdUFNZ5l1FWsdLvzd-112" value="60h&lt;br&gt;&lt;span style=&quot;font-size: 16px;&quot;&gt;&lt;b&gt;EXA703&lt;/b&gt;&lt;/span&gt;&lt;div&gt;MI-PROCE.DE LING.DE&lt;/div&gt;&lt;div&gt;PROGRAMÇÃO&lt;/div&gt;" style="rounded=1;whiteSpace=wrap;html=1;shadow=0;glass=0;sketch=0;fillStyle=auto;fontSize=10;strokeColor=default;gradientColor=none;" vertex="1" parent="GBISdUFNZ5l1FWsdLvzd-111">
          <mxGeometry y="10" width="120" height="60" as="geometry" />
        </mxCell>
        <mxCell id="GBISdUFNZ5l1FWsdLvzd-113" value="" style="group" vertex="1" connectable="0" parent="WIyWlLk6GJQsqaUBKTNV-1">
          <mxGeometry x="1150" y="280" width="130" height="70" as="geometry" />
        </mxCell>
        <mxCell id="GBISdUFNZ5l1FWsdLvzd-114" value="60h&lt;br&gt;&lt;span style=&quot;font-size: 16px;&quot;&gt;&lt;b&gt;EXA702&lt;/b&gt;&lt;/span&gt;&lt;br&gt;&lt;div&gt;&lt;div&gt;ÁLGEBRA VET E GEOM&lt;/div&gt;&lt;div&gt;&lt;span style=&quot;background-color: initial;&quot;&gt;ANALÍTICA&lt;/span&gt;&lt;/div&gt;&lt;/div&gt;" style="rounded=1;whiteSpace=wrap;html=1;shadow=0;glass=0;sketch=0;fillStyle=auto;fontSize=10;strokeColor=default;gradientColor=none;" vertex="1" parent="GBISdUFNZ5l1FWsdLvzd-113">
          <mxGeometry y="10" width="120" height="60" as="geometry" />
        </mxCell>
        <mxCell id="GBISdUFNZ5l1FWsdLvzd-115" value="&lt;font style=&quot;font-size: 17px;&quot;&gt;4&lt;/font&gt;" style="ellipse;whiteSpace=wrap;html=1;fontSize=10;" vertex="1" parent="GBISdUFNZ5l1FWsdLvzd-113">
          <mxGeometry x="100" width="30" height="30" as="geometry" />
        </mxCell>
        <mxCell id="GBISdUFNZ5l1FWsdLvzd-116" value="" style="group" vertex="1" connectable="0" parent="WIyWlLk6GJQsqaUBKTNV-1">
          <mxGeometry x="1020" y="280" width="130" height="70" as="geometry" />
        </mxCell>
        <mxCell id="GBISdUFNZ5l1FWsdLvzd-117" value="60h&lt;br&gt;&lt;span style=&quot;font-size: 16px;&quot;&gt;&lt;b&gt;EXA543&lt;/b&gt;&lt;/span&gt;&lt;div&gt;&lt;div&gt;INTRODUÇÃO AO&lt;/div&gt;&lt;div&gt;&lt;span style=&quot;background-color: initial;&quot;&gt;CÁLCULO&lt;/span&gt;&lt;/div&gt;&lt;/div&gt;" style="rounded=1;whiteSpace=wrap;html=1;shadow=0;glass=0;sketch=0;fillStyle=auto;fontSize=10;strokeColor=default;gradientColor=none;" vertex="1" parent="GBISdUFNZ5l1FWsdLvzd-116">
          <mxGeometry y="10" width="120" height="60" as="geometry" />
        </mxCell>
        <mxCell id="GBISdUFNZ5l1FWsdLvzd-118" value="&lt;font style=&quot;font-size: 17px;&quot;&gt;4&lt;/font&gt;" style="ellipse;whiteSpace=wrap;html=1;fontSize=10;" vertex="1" parent="GBISdUFNZ5l1FWsdLvzd-116">
          <mxGeometry x="100" width="30" height="30" as="geometry" />
        </mxCell>
        <mxCell id="GBISdUFNZ5l1FWsdLvzd-119" value="&lt;font style=&quot;font-size: 17px;&quot;&gt;4&lt;/font&gt;" style="ellipse;whiteSpace=wrap;html=1;fontSize=10;" vertex="1" parent="WIyWlLk6GJQsqaUBKTNV-1">
          <mxGeometry x="1640" y="280" width="30" height="30" as="geometry" />
        </mxCell>
        <mxCell id="GBISdUFNZ5l1FWsdLvzd-120" value="" style="group" vertex="1" connectable="0" parent="WIyWlLk6GJQsqaUBKTNV-1">
          <mxGeometry x="110" y="400" width="130" height="80" as="geometry" />
        </mxCell>
        <mxCell id="GBISdUFNZ5l1FWsdLvzd-121" value="&lt;p style=&quot;line-height: 0.9;&quot;&gt;&lt;font style=&quot;line-height: 1.2;&quot;&gt;&lt;font style=&quot;font-size: 10px;&quot;&gt;60h&lt;/font&gt;&lt;br&gt;&lt;span style=&quot;font-weight: bold;&quot;&gt;&lt;font style=&quot;font-size: 18px;&quot;&gt;EXA703&lt;/font&gt;&lt;/span&gt;&lt;/font&gt;&lt;br&gt;&lt;span data-whi-docs=&quot;[[:p &amp;quot;ÁLGEBRA LINEAR I E&amp;quot;]]&quot;&gt;&lt;/span&gt;&amp;nbsp;&lt;font style=&quot;font-size: 10px;&quot;&gt;ÁLGEBRA LINEAR I E&lt;/font&gt;&lt;b&gt;&lt;font style=&quot;font-size: 15px;&quot;&gt;&lt;br&gt;&lt;/font&gt;&lt;/b&gt;&lt;/p&gt;" style="rounded=1;whiteSpace=wrap;html=1;fillStyle=auto;gradientColor=none;strokeColor=default;shadow=0;glass=0;sketch=0;" vertex="1" parent="GBISdUFNZ5l1FWsdLvzd-120">
          <mxGeometry y="10" width="120" height="60" as="geometry" />
        </mxCell>
        <mxCell id="GBISdUFNZ5l1FWsdLvzd-122" value="&lt;font style=&quot;font-size: 17px;&quot;&gt;4&lt;/font&gt;" style="ellipse;whiteSpace=wrap;html=1;fontSize=10;" vertex="1" parent="GBISdUFNZ5l1FWsdLvzd-120">
          <mxGeometry x="100" width="30" height="30" as="geometry" />
        </mxCell>
        <mxCell id="GBISdUFNZ5l1FWsdLvzd-123" value="" style="group" vertex="1" connectable="0" parent="WIyWlLk6GJQsqaUBKTNV-1">
          <mxGeometry x="500" y="400" width="130" height="70" as="geometry" />
        </mxCell>
        <mxCell id="GBISdUFNZ5l1FWsdLvzd-124" value="60h&lt;br&gt;&lt;span style=&quot;font-size: 16px;&quot;&gt;&lt;b&gt;TEC497&lt;/b&gt;&lt;/span&gt;&lt;br&gt;&lt;div&gt;&lt;div&gt;INTRODUÇÃO A&lt;/div&gt;&lt;div&gt;ELETRÔNICA&lt;/div&gt;&lt;/div&gt;" style="rounded=1;whiteSpace=wrap;html=1;shadow=0;glass=0;sketch=0;fillStyle=auto;fontSize=10;strokeColor=default;gradientColor=none;" vertex="1" parent="GBISdUFNZ5l1FWsdLvzd-123">
          <mxGeometry y="10" width="120" height="60" as="geometry" />
        </mxCell>
        <mxCell id="GBISdUFNZ5l1FWsdLvzd-125" value="&lt;font style=&quot;font-size: 17px;&quot;&gt;4&lt;/font&gt;" style="ellipse;whiteSpace=wrap;html=1;fontSize=10;" vertex="1" parent="GBISdUFNZ5l1FWsdLvzd-123">
          <mxGeometry x="100" width="30" height="30" as="geometry" />
        </mxCell>
        <mxCell id="GBISdUFNZ5l1FWsdLvzd-126" value="" style="group" vertex="1" connectable="0" parent="WIyWlLk6GJQsqaUBKTNV-1">
          <mxGeometry x="630" y="400" width="126" height="70" as="geometry" />
        </mxCell>
        <mxCell id="GBISdUFNZ5l1FWsdLvzd-127" value="60h&lt;br&gt;&lt;span style=&quot;font-size: 16px;&quot;&gt;&lt;b&gt;EXA703&lt;/b&gt;&lt;/span&gt;&lt;div&gt;MI-PROCE.DE LING.DE&lt;/div&gt;&lt;div&gt;PROGRAMÇÃO&lt;/div&gt;" style="rounded=1;whiteSpace=wrap;html=1;shadow=0;glass=0;sketch=0;fillStyle=auto;fontSize=10;strokeColor=default;gradientColor=none;" vertex="1" parent="GBISdUFNZ5l1FWsdLvzd-126">
          <mxGeometry y="10" width="120" height="60" as="geometry" />
        </mxCell>
        <mxCell id="GBISdUFNZ5l1FWsdLvzd-128" value="&lt;font style=&quot;font-size: 17px;&quot;&gt;4&lt;/font&gt;" style="ellipse;whiteSpace=wrap;html=1;fontSize=10;" vertex="1" parent="GBISdUFNZ5l1FWsdLvzd-126">
          <mxGeometry x="100" width="30" height="30" as="geometry" />
        </mxCell>
        <mxCell id="GBISdUFNZ5l1FWsdLvzd-129" value="" style="group" vertex="1" connectable="0" parent="WIyWlLk6GJQsqaUBKTNV-1">
          <mxGeometry x="760" y="400" width="126" height="70" as="geometry" />
        </mxCell>
        <mxCell id="GBISdUFNZ5l1FWsdLvzd-130" value="60h&lt;br&gt;&lt;span style=&quot;font-size: 16px;&quot;&gt;&lt;b&gt;EXA703&lt;/b&gt;&lt;/span&gt;&lt;div&gt;MI-PROCE.DE LING.DE&lt;/div&gt;&lt;div&gt;PROGRAMÇÃO&lt;/div&gt;" style="rounded=1;whiteSpace=wrap;html=1;shadow=0;glass=0;sketch=0;fillStyle=auto;fontSize=10;strokeColor=default;gradientColor=none;" vertex="1" parent="GBISdUFNZ5l1FWsdLvzd-129">
          <mxGeometry y="10" width="120" height="60" as="geometry" />
        </mxCell>
        <mxCell id="GBISdUFNZ5l1FWsdLvzd-131" value="" style="group" vertex="1" connectable="0" parent="WIyWlLk6GJQsqaUBKTNV-1">
          <mxGeometry x="370" y="400" width="130" height="70" as="geometry" />
        </mxCell>
        <mxCell id="GBISdUFNZ5l1FWsdLvzd-132" value="60h&lt;br&gt;&lt;span style=&quot;font-size: 16px;&quot;&gt;&lt;b&gt;EXA702&lt;/b&gt;&lt;/span&gt;&lt;br&gt;&lt;div&gt;&lt;div&gt;ÁLGEBRA VET E GEOM&lt;/div&gt;&lt;div&gt;&lt;span style=&quot;background-color: initial;&quot;&gt;ANALÍTICA&lt;/span&gt;&lt;/div&gt;&lt;/div&gt;" style="rounded=1;whiteSpace=wrap;html=1;shadow=0;glass=0;sketch=0;fillStyle=auto;fontSize=10;strokeColor=default;gradientColor=none;" vertex="1" parent="GBISdUFNZ5l1FWsdLvzd-131">
          <mxGeometry y="10" width="120" height="60" as="geometry" />
        </mxCell>
        <mxCell id="GBISdUFNZ5l1FWsdLvzd-133" value="&lt;font style=&quot;font-size: 17px;&quot;&gt;4&lt;/font&gt;" style="ellipse;whiteSpace=wrap;html=1;fontSize=10;" vertex="1" parent="GBISdUFNZ5l1FWsdLvzd-131">
          <mxGeometry x="100" width="30" height="30" as="geometry" />
        </mxCell>
        <mxCell id="GBISdUFNZ5l1FWsdLvzd-134" value="" style="group" vertex="1" connectable="0" parent="WIyWlLk6GJQsqaUBKTNV-1">
          <mxGeometry x="240" y="400" width="130" height="70" as="geometry" />
        </mxCell>
        <mxCell id="GBISdUFNZ5l1FWsdLvzd-135" value="60h&lt;br&gt;&lt;span style=&quot;font-size: 16px;&quot;&gt;&lt;b&gt;EXA543&lt;/b&gt;&lt;/span&gt;&lt;div&gt;&lt;div&gt;INTRODUÇÃO AO&lt;/div&gt;&lt;div&gt;&lt;span style=&quot;background-color: initial;&quot;&gt;CÁLCULO&lt;/span&gt;&lt;/div&gt;&lt;/div&gt;" style="rounded=1;whiteSpace=wrap;html=1;shadow=0;glass=0;sketch=0;fillStyle=auto;fontSize=10;strokeColor=default;gradientColor=none;" vertex="1" parent="GBISdUFNZ5l1FWsdLvzd-134">
          <mxGeometry y="10" width="120" height="60" as="geometry" />
        </mxCell>
        <mxCell id="GBISdUFNZ5l1FWsdLvzd-136" value="&lt;font style=&quot;font-size: 17px;&quot;&gt;4&lt;/font&gt;" style="ellipse;whiteSpace=wrap;html=1;fontSize=10;" vertex="1" parent="GBISdUFNZ5l1FWsdLvzd-134">
          <mxGeometry x="100" width="30" height="30" as="geometry" />
        </mxCell>
        <mxCell id="GBISdUFNZ5l1FWsdLvzd-137" value="&lt;font style=&quot;font-size: 17px;&quot;&gt;4&lt;/font&gt;" style="ellipse;whiteSpace=wrap;html=1;fontSize=10;" vertex="1" parent="WIyWlLk6GJQsqaUBKTNV-1">
          <mxGeometry x="860" y="400" width="30" height="30" as="geometry" />
        </mxCell>
        <mxCell id="GBISdUFNZ5l1FWsdLvzd-138" value="" style="group" vertex="1" connectable="0" parent="WIyWlLk6GJQsqaUBKTNV-1">
          <mxGeometry x="890" y="400" width="130" height="80" as="geometry" />
        </mxCell>
        <mxCell id="GBISdUFNZ5l1FWsdLvzd-139" value="&lt;p style=&quot;line-height: 0.9;&quot;&gt;&lt;font style=&quot;line-height: 1.2;&quot;&gt;&lt;font style=&quot;font-size: 10px;&quot;&gt;60h&lt;/font&gt;&lt;br&gt;&lt;span style=&quot;font-weight: bold;&quot;&gt;&lt;font style=&quot;font-size: 18px;&quot;&gt;EXA703&lt;/font&gt;&lt;/span&gt;&lt;/font&gt;&lt;br&gt;&lt;span data-whi-docs=&quot;[[:p &amp;quot;ÁLGEBRA LINEAR I E&amp;quot;]]&quot;&gt;&lt;/span&gt;&amp;nbsp;&lt;font style=&quot;font-size: 10px;&quot;&gt;ÁLGEBRA LINEAR I E&lt;/font&gt;&lt;b&gt;&lt;font style=&quot;font-size: 15px;&quot;&gt;&lt;br&gt;&lt;/font&gt;&lt;/b&gt;&lt;/p&gt;" style="rounded=1;whiteSpace=wrap;html=1;fillStyle=auto;gradientColor=none;strokeColor=default;shadow=0;glass=0;sketch=0;" vertex="1" parent="GBISdUFNZ5l1FWsdLvzd-138">
          <mxGeometry y="10" width="120" height="60" as="geometry" />
        </mxCell>
        <mxCell id="GBISdUFNZ5l1FWsdLvzd-140" value="&lt;font style=&quot;font-size: 17px;&quot;&gt;4&lt;/font&gt;" style="ellipse;whiteSpace=wrap;html=1;fontSize=10;" vertex="1" parent="GBISdUFNZ5l1FWsdLvzd-138">
          <mxGeometry x="100" width="30" height="30" as="geometry" />
        </mxCell>
        <mxCell id="GBISdUFNZ5l1FWsdLvzd-141" value="" style="group" vertex="1" connectable="0" parent="WIyWlLk6GJQsqaUBKTNV-1">
          <mxGeometry x="1280" y="400" width="130" height="70" as="geometry" />
        </mxCell>
        <mxCell id="GBISdUFNZ5l1FWsdLvzd-142" value="60h&lt;br&gt;&lt;span style=&quot;font-size: 16px;&quot;&gt;&lt;b&gt;TEC497&lt;/b&gt;&lt;/span&gt;&lt;br&gt;&lt;div&gt;&lt;div&gt;INTRODUÇÃO A&lt;/div&gt;&lt;div&gt;ELETRÔNICA&lt;/div&gt;&lt;/div&gt;" style="rounded=1;whiteSpace=wrap;html=1;shadow=0;glass=0;sketch=0;fillStyle=auto;fontSize=10;strokeColor=default;gradientColor=none;" vertex="1" parent="GBISdUFNZ5l1FWsdLvzd-141">
          <mxGeometry y="10" width="120" height="60" as="geometry" />
        </mxCell>
        <mxCell id="GBISdUFNZ5l1FWsdLvzd-143" value="&lt;font style=&quot;font-size: 17px;&quot;&gt;4&lt;/font&gt;" style="ellipse;whiteSpace=wrap;html=1;fontSize=10;" vertex="1" parent="GBISdUFNZ5l1FWsdLvzd-141">
          <mxGeometry x="100" width="30" height="30" as="geometry" />
        </mxCell>
        <mxCell id="GBISdUFNZ5l1FWsdLvzd-144" value="" style="group" vertex="1" connectable="0" parent="WIyWlLk6GJQsqaUBKTNV-1">
          <mxGeometry x="1410" y="400" width="126" height="70" as="geometry" />
        </mxCell>
        <mxCell id="GBISdUFNZ5l1FWsdLvzd-145" value="60h&lt;br&gt;&lt;span style=&quot;font-size: 16px;&quot;&gt;&lt;b&gt;EXA703&lt;/b&gt;&lt;/span&gt;&lt;div&gt;MI-PROCE.DE LING.DE&lt;/div&gt;&lt;div&gt;PROGRAMÇÃO&lt;/div&gt;" style="rounded=1;whiteSpace=wrap;html=1;shadow=0;glass=0;sketch=0;fillStyle=auto;fontSize=10;strokeColor=default;gradientColor=none;" vertex="1" parent="GBISdUFNZ5l1FWsdLvzd-144">
          <mxGeometry y="10" width="120" height="60" as="geometry" />
        </mxCell>
        <mxCell id="GBISdUFNZ5l1FWsdLvzd-146" value="&lt;font style=&quot;font-size: 17px;&quot;&gt;4&lt;/font&gt;" style="ellipse;whiteSpace=wrap;html=1;fontSize=10;" vertex="1" parent="GBISdUFNZ5l1FWsdLvzd-144">
          <mxGeometry x="100" width="30" height="30" as="geometry" />
        </mxCell>
        <mxCell id="GBISdUFNZ5l1FWsdLvzd-147" value="" style="group" vertex="1" connectable="0" parent="WIyWlLk6GJQsqaUBKTNV-1">
          <mxGeometry x="1540" y="400" width="126" height="70" as="geometry" />
        </mxCell>
        <mxCell id="GBISdUFNZ5l1FWsdLvzd-148" value="60h&lt;br&gt;&lt;span style=&quot;font-size: 16px;&quot;&gt;&lt;b&gt;EXA703&lt;/b&gt;&lt;/span&gt;&lt;div&gt;MI-PROCE.DE LING.DE&lt;/div&gt;&lt;div&gt;PROGRAMÇÃO&lt;/div&gt;" style="rounded=1;whiteSpace=wrap;html=1;shadow=0;glass=0;sketch=0;fillStyle=auto;fontSize=10;strokeColor=default;gradientColor=none;" vertex="1" parent="GBISdUFNZ5l1FWsdLvzd-147">
          <mxGeometry y="10" width="120" height="60" as="geometry" />
        </mxCell>
        <mxCell id="GBISdUFNZ5l1FWsdLvzd-149" value="" style="group" vertex="1" connectable="0" parent="WIyWlLk6GJQsqaUBKTNV-1">
          <mxGeometry x="1150" y="400" width="130" height="70" as="geometry" />
        </mxCell>
        <mxCell id="GBISdUFNZ5l1FWsdLvzd-150" value="60h&lt;br&gt;&lt;span style=&quot;font-size: 16px;&quot;&gt;&lt;b&gt;EXA702&lt;/b&gt;&lt;/span&gt;&lt;br&gt;&lt;div&gt;&lt;div&gt;ÁLGEBRA VET E GEOM&lt;/div&gt;&lt;div&gt;&lt;span style=&quot;background-color: initial;&quot;&gt;ANALÍTICA&lt;/span&gt;&lt;/div&gt;&lt;/div&gt;" style="rounded=1;whiteSpace=wrap;html=1;shadow=0;glass=0;sketch=0;fillStyle=auto;fontSize=10;strokeColor=default;gradientColor=none;" vertex="1" parent="GBISdUFNZ5l1FWsdLvzd-149">
          <mxGeometry y="10" width="120" height="60" as="geometry" />
        </mxCell>
        <mxCell id="GBISdUFNZ5l1FWsdLvzd-151" value="&lt;font style=&quot;font-size: 17px;&quot;&gt;4&lt;/font&gt;" style="ellipse;whiteSpace=wrap;html=1;fontSize=10;" vertex="1" parent="GBISdUFNZ5l1FWsdLvzd-149">
          <mxGeometry x="100" width="30" height="30" as="geometry" />
        </mxCell>
        <mxCell id="GBISdUFNZ5l1FWsdLvzd-152" value="" style="group" vertex="1" connectable="0" parent="WIyWlLk6GJQsqaUBKTNV-1">
          <mxGeometry x="1020" y="400" width="130" height="70" as="geometry" />
        </mxCell>
        <mxCell id="GBISdUFNZ5l1FWsdLvzd-153" value="60h&lt;br&gt;&lt;span style=&quot;font-size: 16px;&quot;&gt;&lt;b&gt;EXA543&lt;/b&gt;&lt;/span&gt;&lt;div&gt;&lt;div&gt;INTRODUÇÃO AO&lt;/div&gt;&lt;div&gt;&lt;span style=&quot;background-color: initial;&quot;&gt;CÁLCULO&lt;/span&gt;&lt;/div&gt;&lt;/div&gt;" style="rounded=1;whiteSpace=wrap;html=1;shadow=0;glass=0;sketch=0;fillStyle=auto;fontSize=10;strokeColor=default;gradientColor=none;" vertex="1" parent="GBISdUFNZ5l1FWsdLvzd-152">
          <mxGeometry y="10" width="120" height="60" as="geometry" />
        </mxCell>
        <mxCell id="GBISdUFNZ5l1FWsdLvzd-154" value="&lt;font style=&quot;font-size: 17px;&quot;&gt;4&lt;/font&gt;" style="ellipse;whiteSpace=wrap;html=1;fontSize=10;" vertex="1" parent="GBISdUFNZ5l1FWsdLvzd-152">
          <mxGeometry x="100" width="30" height="30" as="geometry" />
        </mxCell>
        <mxCell id="GBISdUFNZ5l1FWsdLvzd-155" value="&lt;font style=&quot;font-size: 17px;&quot;&gt;4&lt;/font&gt;" style="ellipse;whiteSpace=wrap;html=1;fontSize=10;" vertex="1" parent="WIyWlLk6GJQsqaUBKTNV-1">
          <mxGeometry x="1640" y="400" width="30" height="30" as="geometry" />
        </mxCell>
        <mxCell id="GBISdUFNZ5l1FWsdLvzd-156" value="" style="group" vertex="1" connectable="0" parent="WIyWlLk6GJQsqaUBKTNV-1">
          <mxGeometry x="130" y="540" width="130" height="80" as="geometry" />
        </mxCell>
        <mxCell id="GBISdUFNZ5l1FWsdLvzd-157" value="&lt;p style=&quot;line-height: 0.9;&quot;&gt;&lt;font style=&quot;line-height: 1.2;&quot;&gt;&lt;font style=&quot;font-size: 10px;&quot;&gt;60h&lt;/font&gt;&lt;br&gt;&lt;span style=&quot;font-weight: bold;&quot;&gt;&lt;font style=&quot;font-size: 18px;&quot;&gt;EXA703&lt;/font&gt;&lt;/span&gt;&lt;/font&gt;&lt;br&gt;&lt;span data-whi-docs=&quot;[[:p &amp;quot;ÁLGEBRA LINEAR I E&amp;quot;]]&quot;&gt;&lt;/span&gt;&amp;nbsp;&lt;font style=&quot;font-size: 10px;&quot;&gt;ÁLGEBRA LINEAR I E&lt;/font&gt;&lt;b&gt;&lt;font style=&quot;font-size: 15px;&quot;&gt;&lt;br&gt;&lt;/font&gt;&lt;/b&gt;&lt;/p&gt;" style="rounded=1;whiteSpace=wrap;html=1;fillStyle=auto;gradientColor=none;strokeColor=default;shadow=0;glass=0;sketch=0;" vertex="1" parent="GBISdUFNZ5l1FWsdLvzd-156">
          <mxGeometry y="10" width="120" height="60" as="geometry" />
        </mxCell>
        <mxCell id="GBISdUFNZ5l1FWsdLvzd-158" value="&lt;font style=&quot;font-size: 17px;&quot;&gt;4&lt;/font&gt;" style="ellipse;whiteSpace=wrap;html=1;fontSize=10;" vertex="1" parent="GBISdUFNZ5l1FWsdLvzd-156">
          <mxGeometry x="100" width="30" height="30" as="geometry" />
        </mxCell>
        <mxCell id="GBISdUFNZ5l1FWsdLvzd-159" value="" style="group" vertex="1" connectable="0" parent="WIyWlLk6GJQsqaUBKTNV-1">
          <mxGeometry x="520" y="540" width="130" height="70" as="geometry" />
        </mxCell>
        <mxCell id="GBISdUFNZ5l1FWsdLvzd-160" value="60h&lt;br&gt;&lt;span style=&quot;font-size: 16px;&quot;&gt;&lt;b&gt;TEC497&lt;/b&gt;&lt;/span&gt;&lt;br&gt;&lt;div&gt;&lt;div&gt;INTRODUÇÃO A&lt;/div&gt;&lt;div&gt;ELETRÔNICA&lt;/div&gt;&lt;/div&gt;" style="rounded=1;whiteSpace=wrap;html=1;shadow=0;glass=0;sketch=0;fillStyle=auto;fontSize=10;strokeColor=default;gradientColor=none;" vertex="1" parent="GBISdUFNZ5l1FWsdLvzd-159">
          <mxGeometry y="10" width="120" height="60" as="geometry" />
        </mxCell>
        <mxCell id="GBISdUFNZ5l1FWsdLvzd-161" value="&lt;font style=&quot;font-size: 17px;&quot;&gt;4&lt;/font&gt;" style="ellipse;whiteSpace=wrap;html=1;fontSize=10;" vertex="1" parent="GBISdUFNZ5l1FWsdLvzd-159">
          <mxGeometry x="100" width="30" height="30" as="geometry" />
        </mxCell>
        <mxCell id="GBISdUFNZ5l1FWsdLvzd-162" value="" style="group" vertex="1" connectable="0" parent="WIyWlLk6GJQsqaUBKTNV-1">
          <mxGeometry x="650" y="540" width="126" height="70" as="geometry" />
        </mxCell>
        <mxCell id="GBISdUFNZ5l1FWsdLvzd-163" value="60h&lt;br&gt;&lt;span style=&quot;font-size: 16px;&quot;&gt;&lt;b&gt;EXA703&lt;/b&gt;&lt;/span&gt;&lt;div&gt;MI-PROCE.DE LING.DE&lt;/div&gt;&lt;div&gt;PROGRAMÇÃO&lt;/div&gt;" style="rounded=1;whiteSpace=wrap;html=1;shadow=0;glass=0;sketch=0;fillStyle=auto;fontSize=10;strokeColor=default;gradientColor=none;" vertex="1" parent="GBISdUFNZ5l1FWsdLvzd-162">
          <mxGeometry y="10" width="120" height="60" as="geometry" />
        </mxCell>
        <mxCell id="GBISdUFNZ5l1FWsdLvzd-164" value="&lt;font style=&quot;font-size: 17px;&quot;&gt;4&lt;/font&gt;" style="ellipse;whiteSpace=wrap;html=1;fontSize=10;" vertex="1" parent="GBISdUFNZ5l1FWsdLvzd-162">
          <mxGeometry x="100" width="30" height="30" as="geometry" />
        </mxCell>
        <mxCell id="GBISdUFNZ5l1FWsdLvzd-165" value="" style="group" vertex="1" connectable="0" parent="WIyWlLk6GJQsqaUBKTNV-1">
          <mxGeometry x="780" y="540" width="126" height="70" as="geometry" />
        </mxCell>
        <mxCell id="GBISdUFNZ5l1FWsdLvzd-166" value="60h&lt;br&gt;&lt;span style=&quot;font-size: 16px;&quot;&gt;&lt;b&gt;EXA703&lt;/b&gt;&lt;/span&gt;&lt;div&gt;MI-PROCE.DE LING.DE&lt;/div&gt;&lt;div&gt;PROGRAMÇÃO&lt;/div&gt;" style="rounded=1;whiteSpace=wrap;html=1;shadow=0;glass=0;sketch=0;fillStyle=auto;fontSize=10;strokeColor=default;gradientColor=none;" vertex="1" parent="GBISdUFNZ5l1FWsdLvzd-165">
          <mxGeometry y="10" width="120" height="60" as="geometry" />
        </mxCell>
        <mxCell id="GBISdUFNZ5l1FWsdLvzd-167" value="" style="group" vertex="1" connectable="0" parent="WIyWlLk6GJQsqaUBKTNV-1">
          <mxGeometry x="390" y="540" width="130" height="70" as="geometry" />
        </mxCell>
        <mxCell id="GBISdUFNZ5l1FWsdLvzd-168" value="60h&lt;br&gt;&lt;span style=&quot;font-size: 16px;&quot;&gt;&lt;b&gt;EXA702&lt;/b&gt;&lt;/span&gt;&lt;br&gt;&lt;div&gt;&lt;div&gt;ÁLGEBRA VET E GEOM&lt;/div&gt;&lt;div&gt;&lt;span style=&quot;background-color: initial;&quot;&gt;ANALÍTICA&lt;/span&gt;&lt;/div&gt;&lt;/div&gt;" style="rounded=1;whiteSpace=wrap;html=1;shadow=0;glass=0;sketch=0;fillStyle=auto;fontSize=10;strokeColor=default;gradientColor=none;" vertex="1" parent="GBISdUFNZ5l1FWsdLvzd-167">
          <mxGeometry y="10" width="120" height="60" as="geometry" />
        </mxCell>
        <mxCell id="GBISdUFNZ5l1FWsdLvzd-169" value="&lt;font style=&quot;font-size: 17px;&quot;&gt;4&lt;/font&gt;" style="ellipse;whiteSpace=wrap;html=1;fontSize=10;" vertex="1" parent="GBISdUFNZ5l1FWsdLvzd-167">
          <mxGeometry x="100" width="30" height="30" as="geometry" />
        </mxCell>
        <mxCell id="GBISdUFNZ5l1FWsdLvzd-170" value="" style="group" vertex="1" connectable="0" parent="WIyWlLk6GJQsqaUBKTNV-1">
          <mxGeometry x="260" y="540" width="130" height="70" as="geometry" />
        </mxCell>
        <mxCell id="GBISdUFNZ5l1FWsdLvzd-171" value="60h&lt;br&gt;&lt;span style=&quot;font-size: 16px;&quot;&gt;&lt;b&gt;EXA543&lt;/b&gt;&lt;/span&gt;&lt;div&gt;&lt;div&gt;INTRODUÇÃO AO&lt;/div&gt;&lt;div&gt;&lt;span style=&quot;background-color: initial;&quot;&gt;CÁLCULO&lt;/span&gt;&lt;/div&gt;&lt;/div&gt;" style="rounded=1;whiteSpace=wrap;html=1;shadow=0;glass=0;sketch=0;fillStyle=auto;fontSize=10;strokeColor=default;gradientColor=none;" vertex="1" parent="GBISdUFNZ5l1FWsdLvzd-170">
          <mxGeometry y="10" width="120" height="60" as="geometry" />
        </mxCell>
        <mxCell id="GBISdUFNZ5l1FWsdLvzd-172" value="&lt;font style=&quot;font-size: 17px;&quot;&gt;4&lt;/font&gt;" style="ellipse;whiteSpace=wrap;html=1;fontSize=10;" vertex="1" parent="GBISdUFNZ5l1FWsdLvzd-170">
          <mxGeometry x="100" width="30" height="30" as="geometry" />
        </mxCell>
        <mxCell id="GBISdUFNZ5l1FWsdLvzd-173" value="&lt;font style=&quot;font-size: 17px;&quot;&gt;4&lt;/font&gt;" style="ellipse;whiteSpace=wrap;html=1;fontSize=10;" vertex="1" parent="WIyWlLk6GJQsqaUBKTNV-1">
          <mxGeometry x="880" y="540" width="30" height="30" as="geometry" />
        </mxCell>
        <mxCell id="GBISdUFNZ5l1FWsdLvzd-174" value="" style="group" vertex="1" connectable="0" parent="WIyWlLk6GJQsqaUBKTNV-1">
          <mxGeometry x="910" y="540" width="130" height="80" as="geometry" />
        </mxCell>
        <mxCell id="GBISdUFNZ5l1FWsdLvzd-175" value="&lt;p style=&quot;line-height: 0.9;&quot;&gt;&lt;font style=&quot;line-height: 1.2;&quot;&gt;&lt;font style=&quot;font-size: 10px;&quot;&gt;60h&lt;/font&gt;&lt;br&gt;&lt;span style=&quot;font-weight: bold;&quot;&gt;&lt;font style=&quot;font-size: 18px;&quot;&gt;EXA703&lt;/font&gt;&lt;/span&gt;&lt;/font&gt;&lt;br&gt;&lt;span data-whi-docs=&quot;[[:p &amp;quot;ÁLGEBRA LINEAR I E&amp;quot;]]&quot;&gt;&lt;/span&gt;&amp;nbsp;&lt;font style=&quot;font-size: 10px;&quot;&gt;ÁLGEBRA LINEAR I E&lt;/font&gt;&lt;b&gt;&lt;font style=&quot;font-size: 15px;&quot;&gt;&lt;br&gt;&lt;/font&gt;&lt;/b&gt;&lt;/p&gt;" style="rounded=1;whiteSpace=wrap;html=1;fillStyle=auto;gradientColor=none;strokeColor=default;shadow=0;glass=0;sketch=0;" vertex="1" parent="GBISdUFNZ5l1FWsdLvzd-174">
          <mxGeometry y="10" width="120" height="60" as="geometry" />
        </mxCell>
        <mxCell id="GBISdUFNZ5l1FWsdLvzd-176" value="&lt;font style=&quot;font-size: 17px;&quot;&gt;4&lt;/font&gt;" style="ellipse;whiteSpace=wrap;html=1;fontSize=10;" vertex="1" parent="GBISdUFNZ5l1FWsdLvzd-174">
          <mxGeometry x="100" width="30" height="30" as="geometry" />
        </mxCell>
        <mxCell id="GBISdUFNZ5l1FWsdLvzd-177" value="" style="group" vertex="1" connectable="0" parent="WIyWlLk6GJQsqaUBKTNV-1">
          <mxGeometry x="1300" y="540" width="130" height="70" as="geometry" />
        </mxCell>
        <mxCell id="GBISdUFNZ5l1FWsdLvzd-178" value="60h&lt;br&gt;&lt;span style=&quot;font-size: 16px;&quot;&gt;&lt;b&gt;TEC497&lt;/b&gt;&lt;/span&gt;&lt;br&gt;&lt;div&gt;&lt;div&gt;INTRODUÇÃO A&lt;/div&gt;&lt;div&gt;ELETRÔNICA&lt;/div&gt;&lt;/div&gt;" style="rounded=1;whiteSpace=wrap;html=1;shadow=0;glass=0;sketch=0;fillStyle=auto;fontSize=10;strokeColor=default;gradientColor=none;" vertex="1" parent="GBISdUFNZ5l1FWsdLvzd-177">
          <mxGeometry y="10" width="120" height="60" as="geometry" />
        </mxCell>
        <mxCell id="GBISdUFNZ5l1FWsdLvzd-179" value="&lt;font style=&quot;font-size: 17px;&quot;&gt;4&lt;/font&gt;" style="ellipse;whiteSpace=wrap;html=1;fontSize=10;" vertex="1" parent="GBISdUFNZ5l1FWsdLvzd-177">
          <mxGeometry x="100" width="30" height="30" as="geometry" />
        </mxCell>
        <mxCell id="GBISdUFNZ5l1FWsdLvzd-180" value="" style="group" vertex="1" connectable="0" parent="WIyWlLk6GJQsqaUBKTNV-1">
          <mxGeometry x="1430" y="540" width="126" height="70" as="geometry" />
        </mxCell>
        <mxCell id="GBISdUFNZ5l1FWsdLvzd-181" value="60h&lt;br&gt;&lt;span style=&quot;font-size: 16px;&quot;&gt;&lt;b&gt;EXA703&lt;/b&gt;&lt;/span&gt;&lt;div&gt;MI-PROCE.DE LING.DE&lt;/div&gt;&lt;div&gt;PROGRAMÇÃO&lt;/div&gt;" style="rounded=1;whiteSpace=wrap;html=1;shadow=0;glass=0;sketch=0;fillStyle=auto;fontSize=10;strokeColor=default;gradientColor=none;" vertex="1" parent="GBISdUFNZ5l1FWsdLvzd-180">
          <mxGeometry y="10" width="120" height="60" as="geometry" />
        </mxCell>
        <mxCell id="GBISdUFNZ5l1FWsdLvzd-182" value="&lt;font style=&quot;font-size: 17px;&quot;&gt;4&lt;/font&gt;" style="ellipse;whiteSpace=wrap;html=1;fontSize=10;" vertex="1" parent="GBISdUFNZ5l1FWsdLvzd-180">
          <mxGeometry x="100" width="30" height="30" as="geometry" />
        </mxCell>
        <mxCell id="GBISdUFNZ5l1FWsdLvzd-183" value="" style="group" vertex="1" connectable="0" parent="WIyWlLk6GJQsqaUBKTNV-1">
          <mxGeometry x="1560" y="540" width="126" height="70" as="geometry" />
        </mxCell>
        <mxCell id="GBISdUFNZ5l1FWsdLvzd-184" value="60h&lt;br&gt;&lt;span style=&quot;font-size: 16px;&quot;&gt;&lt;b&gt;EXA703&lt;/b&gt;&lt;/span&gt;&lt;div&gt;MI-PROCE.DE LING.DE&lt;/div&gt;&lt;div&gt;PROGRAMÇÃO&lt;/div&gt;" style="rounded=1;whiteSpace=wrap;html=1;shadow=0;glass=0;sketch=0;fillStyle=auto;fontSize=10;strokeColor=default;gradientColor=none;" vertex="1" parent="GBISdUFNZ5l1FWsdLvzd-183">
          <mxGeometry y="10" width="120" height="60" as="geometry" />
        </mxCell>
        <mxCell id="GBISdUFNZ5l1FWsdLvzd-185" value="" style="group" vertex="1" connectable="0" parent="WIyWlLk6GJQsqaUBKTNV-1">
          <mxGeometry x="1170" y="540" width="130" height="70" as="geometry" />
        </mxCell>
        <mxCell id="GBISdUFNZ5l1FWsdLvzd-186" value="60h&lt;br&gt;&lt;span style=&quot;font-size: 16px;&quot;&gt;&lt;b&gt;EXA702&lt;/b&gt;&lt;/span&gt;&lt;br&gt;&lt;div&gt;&lt;div&gt;ÁLGEBRA VET E GEOM&lt;/div&gt;&lt;div&gt;&lt;span style=&quot;background-color: initial;&quot;&gt;ANALÍTICA&lt;/span&gt;&lt;/div&gt;&lt;/div&gt;" style="rounded=1;whiteSpace=wrap;html=1;shadow=0;glass=0;sketch=0;fillStyle=auto;fontSize=10;strokeColor=default;gradientColor=none;" vertex="1" parent="GBISdUFNZ5l1FWsdLvzd-185">
          <mxGeometry y="10" width="120" height="60" as="geometry" />
        </mxCell>
        <mxCell id="GBISdUFNZ5l1FWsdLvzd-187" value="&lt;font style=&quot;font-size: 17px;&quot;&gt;4&lt;/font&gt;" style="ellipse;whiteSpace=wrap;html=1;fontSize=10;" vertex="1" parent="GBISdUFNZ5l1FWsdLvzd-185">
          <mxGeometry x="100" width="30" height="30" as="geometry" />
        </mxCell>
        <mxCell id="GBISdUFNZ5l1FWsdLvzd-188" value="" style="group" vertex="1" connectable="0" parent="WIyWlLk6GJQsqaUBKTNV-1">
          <mxGeometry x="1040" y="540" width="130" height="70" as="geometry" />
        </mxCell>
        <mxCell id="GBISdUFNZ5l1FWsdLvzd-189" value="60h&lt;br&gt;&lt;span style=&quot;font-size: 16px;&quot;&gt;&lt;b&gt;EXA543&lt;/b&gt;&lt;/span&gt;&lt;div&gt;&lt;div&gt;INTRODUÇÃO AO&lt;/div&gt;&lt;div&gt;&lt;span style=&quot;background-color: initial;&quot;&gt;CÁLCULO&lt;/span&gt;&lt;/div&gt;&lt;/div&gt;" style="rounded=1;whiteSpace=wrap;html=1;shadow=0;glass=0;sketch=0;fillStyle=auto;fontSize=10;strokeColor=default;gradientColor=none;" vertex="1" parent="GBISdUFNZ5l1FWsdLvzd-188">
          <mxGeometry y="10" width="120" height="60" as="geometry" />
        </mxCell>
        <mxCell id="GBISdUFNZ5l1FWsdLvzd-190" value="&lt;font style=&quot;font-size: 17px;&quot;&gt;4&lt;/font&gt;" style="ellipse;whiteSpace=wrap;html=1;fontSize=10;" vertex="1" parent="GBISdUFNZ5l1FWsdLvzd-188">
          <mxGeometry x="100" width="30" height="30" as="geometry" />
        </mxCell>
        <mxCell id="GBISdUFNZ5l1FWsdLvzd-191" value="&lt;font style=&quot;font-size: 17px;&quot;&gt;4&lt;/font&gt;" style="ellipse;whiteSpace=wrap;html=1;fontSize=10;" vertex="1" parent="WIyWlLk6GJQsqaUBKTNV-1">
          <mxGeometry x="1660" y="540" width="30" height="30" as="geometry" />
        </mxCell>
      </root>
    </mxGraphModel>
  </diagram>
</mxfile>
